<svg width="52" height="52" viewBox="0 0 52 52" fill="none" xmlns="http://www.w3.org/2000/svg"><g id="eyes-01"><path id="Vector_3" d="M17.21 27C17.21 27.8445 17.4604 28.6701 17.9296 29.3723 18.3988 30.0745 19.0657 30.6218 19.8459 30.9449 20.6261 31.2681 21.4847 31.3527 22.313 31.1879 23.1413 31.0232 23.9021 30.6165 24.4993 30.0193 25.0965 29.4222 25.5032 28.6613 25.6679 27.833 25.8327 27.0047 25.7481 26.1462 25.4249 25.3659 25.1017 24.5857 24.5544 23.9188 23.8522 23.4496 23.15 22.9804 22.3245 22.73 21.48 22.73 20.3475 22.73 19.2614 23.1799 18.4606 23.9806 17.6598 24.7814 17.21 25.8675 17.21 27Z" fill="#000"/><path id="Vector_4" d="M10.5199 24.3802C14.9999 17.0002 24.9299 14.6402 31.4999 20.4502 37.0599 25.3802 35.9099 34.8902 35.9099 34.8902 35.9099 34.8902 28.4099 35.4602 21.3699 35.4102 15.2299 35.4102 7.06995 34.8602 7.06995 34.8602 7.44359 31.1574 8.621 27.5808 10.5199 24.3802Z" stroke="#000" stroke-width="3.28"/><path id="Vector_5" d="M44 18.2302 35.6 23.9002 34.03 21.3002 42.95 16.4902 44 18.2302Z" fill="#000"/></g></svg>